<mxfile host="app.diagrams.net" modified="2023-08-26T19:43:55.580Z" agent="Mozilla/5.0 (Windows NT 10.0; Win64; x64) AppleWebKit/537.36 (KHTML, like Gecko) Chrome/116.0.0.0 Safari/537.36 Edg/116.0.1938.54" etag="51DFo2k0q6qqyI9YZpSW" version="21.6.9" type="github">
  <diagram id="R2lEEEUBdFMjLlhIrx00" name="Page-1">
    <mxGraphModel dx="2279" dy="1859" grid="1" gridSize="10" guides="1" tooltips="1" connect="1" arrows="1" fold="1" page="1" pageScale="1" pageWidth="850" pageHeight="1100" math="0" shadow="0" extFonts="Permanent Marker^https://fonts.googleapis.com/css?family=Permanent+Marker">
      <root>
        <mxCell id="0" />
        <mxCell id="1" parent="0" />
        <mxCell id="C-vyLk0tnHw3VtMMgP7b-12" value="" style="edgeStyle=entityRelationEdgeStyle;endArrow=ERzeroToMany;startArrow=ERone;endFill=1;startFill=0;" parent="1" source="C-vyLk0tnHw3VtMMgP7b-3" target="C-vyLk0tnHw3VtMMgP7b-17" edge="1">
          <mxGeometry width="100" height="100" relative="1" as="geometry">
            <mxPoint x="400" y="180" as="sourcePoint" />
            <mxPoint x="460" y="205" as="targetPoint" />
          </mxGeometry>
        </mxCell>
        <mxCell id="qtwtknoeKy0tqFDnTAvP-20" value="" style="edgeStyle=orthogonalEdgeStyle;rounded=0;orthogonalLoop=1;jettySize=auto;html=1;" edge="1" parent="1" source="C-vyLk0tnHw3VtMMgP7b-2" target="qtwtknoeKy0tqFDnTAvP-19">
          <mxGeometry relative="1" as="geometry" />
        </mxCell>
        <mxCell id="C-vyLk0tnHw3VtMMgP7b-2" value="Pedidos" style="shape=table;startSize=30;container=1;collapsible=1;childLayout=tableLayout;fixedRows=1;rowLines=0;fontStyle=1;align=center;resizeLast=1;" parent="1" vertex="1" collapsed="1">
          <mxGeometry x="450" y="120" width="90" height="30" as="geometry">
            <mxRectangle x="450" y="120" width="250" height="130" as="alternateBounds" />
          </mxGeometry>
        </mxCell>
        <mxCell id="C-vyLk0tnHw3VtMMgP7b-3" value="" style="shape=partialRectangle;collapsible=0;dropTarget=0;pointerEvents=0;fillColor=none;points=[[0,0.5],[1,0.5]];portConstraint=eastwest;top=0;left=0;right=0;bottom=1;" parent="C-vyLk0tnHw3VtMMgP7b-2" vertex="1">
          <mxGeometry y="30" width="250" height="30" as="geometry" />
        </mxCell>
        <mxCell id="C-vyLk0tnHw3VtMMgP7b-4" value="PK" style="shape=partialRectangle;overflow=hidden;connectable=0;fillColor=none;top=0;left=0;bottom=0;right=0;fontStyle=1;" parent="C-vyLk0tnHw3VtMMgP7b-3" vertex="1">
          <mxGeometry width="30" height="30" as="geometry">
            <mxRectangle width="30" height="30" as="alternateBounds" />
          </mxGeometry>
        </mxCell>
        <mxCell id="C-vyLk0tnHw3VtMMgP7b-5" value="order_id int NOT NULL " style="shape=partialRectangle;overflow=hidden;connectable=0;fillColor=none;top=0;left=0;bottom=0;right=0;align=left;spacingLeft=6;fontStyle=5;" parent="C-vyLk0tnHw3VtMMgP7b-3" vertex="1">
          <mxGeometry x="30" width="220" height="30" as="geometry">
            <mxRectangle width="220" height="30" as="alternateBounds" />
          </mxGeometry>
        </mxCell>
        <mxCell id="C-vyLk0tnHw3VtMMgP7b-6" value="" style="shape=partialRectangle;collapsible=0;dropTarget=0;pointerEvents=0;fillColor=none;points=[[0,0.5],[1,0.5]];portConstraint=eastwest;top=0;left=0;right=0;bottom=0;" parent="C-vyLk0tnHw3VtMMgP7b-2" vertex="1">
          <mxGeometry y="60" width="250" height="30" as="geometry" />
        </mxCell>
        <mxCell id="C-vyLk0tnHw3VtMMgP7b-7" value="FK1" style="shape=partialRectangle;overflow=hidden;connectable=0;fillColor=none;top=0;left=0;bottom=0;right=0;" parent="C-vyLk0tnHw3VtMMgP7b-6" vertex="1">
          <mxGeometry width="30" height="30" as="geometry">
            <mxRectangle width="30" height="30" as="alternateBounds" />
          </mxGeometry>
        </mxCell>
        <mxCell id="C-vyLk0tnHw3VtMMgP7b-8" value="customer_id int NOT NULL" style="shape=partialRectangle;overflow=hidden;connectable=0;fillColor=none;top=0;left=0;bottom=0;right=0;align=left;spacingLeft=6;" parent="C-vyLk0tnHw3VtMMgP7b-6" vertex="1">
          <mxGeometry x="30" width="220" height="30" as="geometry">
            <mxRectangle width="220" height="30" as="alternateBounds" />
          </mxGeometry>
        </mxCell>
        <mxCell id="C-vyLk0tnHw3VtMMgP7b-9" value="" style="shape=partialRectangle;collapsible=0;dropTarget=0;pointerEvents=0;fillColor=none;points=[[0,0.5],[1,0.5]];portConstraint=eastwest;top=0;left=0;right=0;bottom=0;" parent="C-vyLk0tnHw3VtMMgP7b-2" vertex="1">
          <mxGeometry y="90" width="250" height="30" as="geometry" />
        </mxCell>
        <mxCell id="C-vyLk0tnHw3VtMMgP7b-10" value="" style="shape=partialRectangle;overflow=hidden;connectable=0;fillColor=none;top=0;left=0;bottom=0;right=0;" parent="C-vyLk0tnHw3VtMMgP7b-9" vertex="1">
          <mxGeometry width="30" height="30" as="geometry">
            <mxRectangle width="30" height="30" as="alternateBounds" />
          </mxGeometry>
        </mxCell>
        <mxCell id="C-vyLk0tnHw3VtMMgP7b-11" value="order_date date NOT NULL" style="shape=partialRectangle;overflow=hidden;connectable=0;fillColor=none;top=0;left=0;bottom=0;right=0;align=left;spacingLeft=6;" parent="C-vyLk0tnHw3VtMMgP7b-9" vertex="1">
          <mxGeometry x="30" width="220" height="30" as="geometry">
            <mxRectangle width="220" height="30" as="alternateBounds" />
          </mxGeometry>
        </mxCell>
        <mxCell id="qtwtknoeKy0tqFDnTAvP-24" value="" style="edgeStyle=orthogonalEdgeStyle;rounded=0;orthogonalLoop=1;jettySize=auto;html=1;" edge="1" parent="1" source="C-vyLk0tnHw3VtMMgP7b-13" target="qtwtknoeKy0tqFDnTAvP-23">
          <mxGeometry relative="1" as="geometry" />
        </mxCell>
        <mxCell id="C-vyLk0tnHw3VtMMgP7b-13" value="Envíos" style="shape=table;startSize=30;container=1;collapsible=1;childLayout=tableLayout;fixedRows=1;rowLines=0;fontStyle=1;align=center;resizeLast=1;" parent="1" vertex="1" collapsed="1">
          <mxGeometry x="450" y="280" width="80" height="30" as="geometry">
            <mxRectangle x="450" y="280" width="250" height="130" as="alternateBounds" />
          </mxGeometry>
        </mxCell>
        <mxCell id="C-vyLk0tnHw3VtMMgP7b-14" value="" style="shape=partialRectangle;collapsible=0;dropTarget=0;pointerEvents=0;fillColor=none;points=[[0,0.5],[1,0.5]];portConstraint=eastwest;top=0;left=0;right=0;bottom=1;" parent="C-vyLk0tnHw3VtMMgP7b-13" vertex="1">
          <mxGeometry y="30" width="250" height="30" as="geometry" />
        </mxCell>
        <mxCell id="C-vyLk0tnHw3VtMMgP7b-15" value="PK" style="shape=partialRectangle;overflow=hidden;connectable=0;fillColor=none;top=0;left=0;bottom=0;right=0;fontStyle=1;" parent="C-vyLk0tnHw3VtMMgP7b-14" vertex="1">
          <mxGeometry width="30" height="30" as="geometry">
            <mxRectangle width="30" height="30" as="alternateBounds" />
          </mxGeometry>
        </mxCell>
        <mxCell id="C-vyLk0tnHw3VtMMgP7b-16" value="shipment_id int NOT NULL " style="shape=partialRectangle;overflow=hidden;connectable=0;fillColor=none;top=0;left=0;bottom=0;right=0;align=left;spacingLeft=6;fontStyle=5;" parent="C-vyLk0tnHw3VtMMgP7b-14" vertex="1">
          <mxGeometry x="30" width="220" height="30" as="geometry">
            <mxRectangle width="220" height="30" as="alternateBounds" />
          </mxGeometry>
        </mxCell>
        <mxCell id="C-vyLk0tnHw3VtMMgP7b-17" value="" style="shape=partialRectangle;collapsible=0;dropTarget=0;pointerEvents=0;fillColor=none;points=[[0,0.5],[1,0.5]];portConstraint=eastwest;top=0;left=0;right=0;bottom=0;" parent="C-vyLk0tnHw3VtMMgP7b-13" vertex="1">
          <mxGeometry y="60" width="250" height="30" as="geometry" />
        </mxCell>
        <mxCell id="C-vyLk0tnHw3VtMMgP7b-18" value="FK1" style="shape=partialRectangle;overflow=hidden;connectable=0;fillColor=none;top=0;left=0;bottom=0;right=0;" parent="C-vyLk0tnHw3VtMMgP7b-17" vertex="1">
          <mxGeometry width="30" height="30" as="geometry">
            <mxRectangle width="30" height="30" as="alternateBounds" />
          </mxGeometry>
        </mxCell>
        <mxCell id="C-vyLk0tnHw3VtMMgP7b-19" value="order_id int NOT NULL" style="shape=partialRectangle;overflow=hidden;connectable=0;fillColor=none;top=0;left=0;bottom=0;right=0;align=left;spacingLeft=6;" parent="C-vyLk0tnHw3VtMMgP7b-17" vertex="1">
          <mxGeometry x="30" width="220" height="30" as="geometry">
            <mxRectangle width="220" height="30" as="alternateBounds" />
          </mxGeometry>
        </mxCell>
        <mxCell id="C-vyLk0tnHw3VtMMgP7b-20" value="" style="shape=partialRectangle;collapsible=0;dropTarget=0;pointerEvents=0;fillColor=none;points=[[0,0.5],[1,0.5]];portConstraint=eastwest;top=0;left=0;right=0;bottom=0;" parent="C-vyLk0tnHw3VtMMgP7b-13" vertex="1">
          <mxGeometry y="90" width="250" height="30" as="geometry" />
        </mxCell>
        <mxCell id="C-vyLk0tnHw3VtMMgP7b-21" value="" style="shape=partialRectangle;overflow=hidden;connectable=0;fillColor=none;top=0;left=0;bottom=0;right=0;" parent="C-vyLk0tnHw3VtMMgP7b-20" vertex="1">
          <mxGeometry width="30" height="30" as="geometry">
            <mxRectangle width="30" height="30" as="alternateBounds" />
          </mxGeometry>
        </mxCell>
        <mxCell id="C-vyLk0tnHw3VtMMgP7b-22" value="shipment_date date NOT NULL" style="shape=partialRectangle;overflow=hidden;connectable=0;fillColor=none;top=0;left=0;bottom=0;right=0;align=left;spacingLeft=6;" parent="C-vyLk0tnHw3VtMMgP7b-20" vertex="1">
          <mxGeometry x="30" width="220" height="30" as="geometry">
            <mxRectangle width="220" height="30" as="alternateBounds" />
          </mxGeometry>
        </mxCell>
        <mxCell id="qtwtknoeKy0tqFDnTAvP-8" value="" style="edgeStyle=orthogonalEdgeStyle;rounded=0;orthogonalLoop=1;jettySize=auto;html=1;" edge="1" parent="1" source="C-vyLk0tnHw3VtMMgP7b-23" target="qtwtknoeKy0tqFDnTAvP-3">
          <mxGeometry relative="1" as="geometry" />
        </mxCell>
        <mxCell id="qtwtknoeKy0tqFDnTAvP-28" value="" style="edgeStyle=orthogonalEdgeStyle;rounded=0;orthogonalLoop=1;jettySize=auto;html=1;" edge="1" parent="1" source="C-vyLk0tnHw3VtMMgP7b-23" target="qtwtknoeKy0tqFDnTAvP-27">
          <mxGeometry relative="1" as="geometry" />
        </mxCell>
        <mxCell id="C-vyLk0tnHw3VtMMgP7b-23" value="Cliente    " style="shape=table;startSize=30;container=1;collapsible=1;childLayout=tableLayout;fixedRows=1;rowLines=0;fontStyle=1;align=center;resizeLast=1;" parent="1" vertex="1" collapsed="1">
          <mxGeometry x="90" y="120" width="90" height="30" as="geometry">
            <mxRectangle x="90" y="120" width="250" height="100" as="alternateBounds" />
          </mxGeometry>
        </mxCell>
        <mxCell id="C-vyLk0tnHw3VtMMgP7b-24" value="" style="shape=partialRectangle;collapsible=0;dropTarget=0;pointerEvents=0;fillColor=none;points=[[0,0.5],[1,0.5]];portConstraint=eastwest;top=0;left=0;right=0;bottom=1;" parent="C-vyLk0tnHw3VtMMgP7b-23" vertex="1">
          <mxGeometry y="30" width="250" height="30" as="geometry" />
        </mxCell>
        <mxCell id="C-vyLk0tnHw3VtMMgP7b-25" value="PK" style="shape=partialRectangle;overflow=hidden;connectable=0;fillColor=none;top=0;left=0;bottom=0;right=0;fontStyle=1;" parent="C-vyLk0tnHw3VtMMgP7b-24" vertex="1">
          <mxGeometry width="30" height="30" as="geometry">
            <mxRectangle width="30" height="30" as="alternateBounds" />
          </mxGeometry>
        </mxCell>
        <mxCell id="C-vyLk0tnHw3VtMMgP7b-26" value="customer_id int NOT NULL " style="shape=partialRectangle;overflow=hidden;connectable=0;fillColor=none;top=0;left=0;bottom=0;right=0;align=left;spacingLeft=6;fontStyle=5;" parent="C-vyLk0tnHw3VtMMgP7b-24" vertex="1">
          <mxGeometry x="30" width="220" height="30" as="geometry">
            <mxRectangle width="220" height="30" as="alternateBounds" />
          </mxGeometry>
        </mxCell>
        <mxCell id="C-vyLk0tnHw3VtMMgP7b-27" value="" style="shape=partialRectangle;collapsible=0;dropTarget=0;pointerEvents=0;fillColor=none;points=[[0,0.5],[1,0.5]];portConstraint=eastwest;top=0;left=0;right=0;bottom=0;" parent="C-vyLk0tnHw3VtMMgP7b-23" vertex="1">
          <mxGeometry y="60" width="250" height="30" as="geometry" />
        </mxCell>
        <mxCell id="C-vyLk0tnHw3VtMMgP7b-28" value="" style="shape=partialRectangle;overflow=hidden;connectable=0;fillColor=none;top=0;left=0;bottom=0;right=0;" parent="C-vyLk0tnHw3VtMMgP7b-27" vertex="1">
          <mxGeometry width="30" height="30" as="geometry">
            <mxRectangle width="30" height="30" as="alternateBounds" />
          </mxGeometry>
        </mxCell>
        <mxCell id="C-vyLk0tnHw3VtMMgP7b-29" value="customer_name char(50) NOT NULL" style="shape=partialRectangle;overflow=hidden;connectable=0;fillColor=none;top=0;left=0;bottom=0;right=0;align=left;spacingLeft=6;" parent="C-vyLk0tnHw3VtMMgP7b-27" vertex="1">
          <mxGeometry x="30" width="220" height="30" as="geometry">
            <mxRectangle width="220" height="30" as="alternateBounds" />
          </mxGeometry>
        </mxCell>
        <mxCell id="qtwtknoeKy0tqFDnTAvP-1" value="Nombre" style="ellipse;whiteSpace=wrap;html=1;startSize=30;fontStyle=1;" vertex="1" parent="1">
          <mxGeometry x="-110" y="-10" width="130" height="80" as="geometry" />
        </mxCell>
        <mxCell id="qtwtknoeKy0tqFDnTAvP-5" value="" style="edgeStyle=orthogonalEdgeStyle;rounded=0;orthogonalLoop=1;jettySize=auto;html=1;" edge="1" parent="1" source="qtwtknoeKy0tqFDnTAvP-3" target="qtwtknoeKy0tqFDnTAvP-4">
          <mxGeometry relative="1" as="geometry">
            <Array as="points">
              <mxPoint x="220" y="30" />
              <mxPoint x="220" y="30" />
            </Array>
          </mxGeometry>
        </mxCell>
        <mxCell id="qtwtknoeKy0tqFDnTAvP-9" value="" style="edgeStyle=orthogonalEdgeStyle;rounded=0;orthogonalLoop=1;jettySize=auto;html=1;" edge="1" parent="1" source="qtwtknoeKy0tqFDnTAvP-3" target="qtwtknoeKy0tqFDnTAvP-1">
          <mxGeometry relative="1" as="geometry" />
        </mxCell>
        <mxCell id="qtwtknoeKy0tqFDnTAvP-11" value="" style="edgeStyle=orthogonalEdgeStyle;rounded=0;orthogonalLoop=1;jettySize=auto;html=1;" edge="1" parent="1" source="qtwtknoeKy0tqFDnTAvP-3" target="qtwtknoeKy0tqFDnTAvP-10">
          <mxGeometry relative="1" as="geometry" />
        </mxCell>
        <mxCell id="qtwtknoeKy0tqFDnTAvP-3" value="Tiene" style="rhombus;whiteSpace=wrap;html=1;" vertex="1" parent="1">
          <mxGeometry x="95" y="-10" width="80" height="80" as="geometry" />
        </mxCell>
        <mxCell id="qtwtknoeKy0tqFDnTAvP-4" value="Dirección" style="ellipse;whiteSpace=wrap;html=1;" vertex="1" parent="1">
          <mxGeometry x="260" y="-10" width="110" height="80" as="geometry" />
        </mxCell>
        <mxCell id="qtwtknoeKy0tqFDnTAvP-10" value="Edad&amp;nbsp;" style="ellipse;whiteSpace=wrap;html=1;" vertex="1" parent="1">
          <mxGeometry x="70" y="-170" width="130" height="80" as="geometry" />
        </mxCell>
        <mxCell id="qtwtknoeKy0tqFDnTAvP-12" value="" style="endArrow=classic;html=1;rounded=0;entryX=0;entryY=0.5;entryDx=0;entryDy=0;" edge="1" parent="1" target="qtwtknoeKy0tqFDnTAvP-13">
          <mxGeometry width="50" height="50" relative="1" as="geometry">
            <mxPoint x="160" y="10" as="sourcePoint" />
            <mxPoint x="210" y="-40" as="targetPoint" />
          </mxGeometry>
        </mxCell>
        <mxCell id="qtwtknoeKy0tqFDnTAvP-13" value="Teléfono" style="ellipse;whiteSpace=wrap;html=1;" vertex="1" parent="1">
          <mxGeometry x="250" y="-120" width="120" height="80" as="geometry" />
        </mxCell>
        <mxCell id="qtwtknoeKy0tqFDnTAvP-17" value="" style="endArrow=classic;html=1;rounded=0;" edge="1" parent="1" source="qtwtknoeKy0tqFDnTAvP-3" target="qtwtknoeKy0tqFDnTAvP-18">
          <mxGeometry width="50" height="50" relative="1" as="geometry">
            <mxPoint x="80" as="sourcePoint" />
            <mxPoint x="60" y="-60" as="targetPoint" />
          </mxGeometry>
        </mxCell>
        <mxCell id="qtwtknoeKy0tqFDnTAvP-18" value="Email" style="ellipse;whiteSpace=wrap;html=1;" vertex="1" parent="1">
          <mxGeometry x="-40" y="-110" width="120" height="80" as="geometry" />
        </mxCell>
        <mxCell id="qtwtknoeKy0tqFDnTAvP-22" value="" style="edgeStyle=orthogonalEdgeStyle;rounded=0;orthogonalLoop=1;jettySize=auto;html=1;" edge="1" parent="1" source="qtwtknoeKy0tqFDnTAvP-19" target="qtwtknoeKy0tqFDnTAvP-21">
          <mxGeometry relative="1" as="geometry" />
        </mxCell>
        <mxCell id="qtwtknoeKy0tqFDnTAvP-19" value="Vive&amp;nbsp;" style="rhombus;whiteSpace=wrap;html=1;startSize=30;fontStyle=1;" vertex="1" parent="1">
          <mxGeometry x="455" y="-15" width="80" height="80" as="geometry" />
        </mxCell>
        <mxCell id="qtwtknoeKy0tqFDnTAvP-21" value="Id categoria" style="ellipse;whiteSpace=wrap;html=1;startSize=30;fontStyle=1;" vertex="1" parent="1">
          <mxGeometry x="422.5" y="-175" width="145" height="80" as="geometry" />
        </mxCell>
        <mxCell id="qtwtknoeKy0tqFDnTAvP-23" value="Total de la compra" style="ellipse;whiteSpace=wrap;html=1;align=center;dashed=1;" vertex="1" parent="1">
          <mxGeometry x="440" y="360" width="100" height="40" as="geometry" />
        </mxCell>
        <mxCell id="qtwtknoeKy0tqFDnTAvP-25" value="RFC" style="rounded=1;whiteSpace=wrap;html=1;startSize=30;fontStyle=1;" vertex="1" parent="1">
          <mxGeometry x="-130" y="215" width="120" height="60" as="geometry" />
        </mxCell>
        <mxCell id="qtwtknoeKy0tqFDnTAvP-29" value="" style="edgeStyle=orthogonalEdgeStyle;rounded=0;orthogonalLoop=1;jettySize=auto;html=1;" edge="1" parent="1" source="qtwtknoeKy0tqFDnTAvP-27" target="qtwtknoeKy0tqFDnTAvP-25">
          <mxGeometry relative="1" as="geometry" />
        </mxCell>
        <mxCell id="qtwtknoeKy0tqFDnTAvP-27" value="Vive" style="rhombus;whiteSpace=wrap;html=1;startSize=30;fontStyle=1;" vertex="1" parent="1">
          <mxGeometry x="95" y="205" width="80" height="80" as="geometry" />
        </mxCell>
        <mxCell id="qtwtknoeKy0tqFDnTAvP-32" value="Tiene" style="rhombus;whiteSpace=wrap;html=1;" vertex="1" parent="1">
          <mxGeometry x="270" y="95" width="80" height="80" as="geometry" />
        </mxCell>
        <mxCell id="qtwtknoeKy0tqFDnTAvP-33" value="" style="endArrow=classic;html=1;rounded=0;exitX=1;exitY=0.5;exitDx=0;exitDy=0;entryX=0;entryY=0.5;entryDx=0;entryDy=0;" edge="1" parent="1" source="C-vyLk0tnHw3VtMMgP7b-23" target="qtwtknoeKy0tqFDnTAvP-32">
          <mxGeometry width="50" height="50" relative="1" as="geometry">
            <mxPoint x="210" y="160" as="sourcePoint" />
            <mxPoint x="260" y="135" as="targetPoint" />
          </mxGeometry>
        </mxCell>
        <mxCell id="qtwtknoeKy0tqFDnTAvP-34" value="" style="endArrow=classic;html=1;rounded=0;entryX=0;entryY=0.5;entryDx=0;entryDy=0;exitX=1;exitY=0.5;exitDx=0;exitDy=0;" edge="1" parent="1" source="qtwtknoeKy0tqFDnTAvP-32" target="C-vyLk0tnHw3VtMMgP7b-2">
          <mxGeometry width="50" height="50" relative="1" as="geometry">
            <mxPoint x="360" y="134.5" as="sourcePoint" />
            <mxPoint x="440" y="134.5" as="targetPoint" />
          </mxGeometry>
        </mxCell>
        <mxCell id="qtwtknoeKy0tqFDnTAvP-37" value="&#xa;&lt;ul style=&quot;box-sizing: border-box; padding-left: 2em; margin-top: 0px; margin-bottom: 16px; font-family: -apple-system, BlinkMacSystemFont, &amp;quot;Segoe UI&amp;quot;, &amp;quot;Noto Sans&amp;quot;, Helvetica, Arial, sans-serif, &amp;quot;Apple Color Emoji&amp;quot;, &amp;quot;Segoe UI Emoji&amp;quot;; font-size: 9px; font-style: normal; font-variant-ligatures: normal; font-variant-caps: normal; letter-spacing: normal; orphans: 2; text-align: start; text-indent: 0px; text-transform: none; widows: 2; word-spacing: 0px; -webkit-text-stroke-width: 0px; text-decoration-thickness: initial; text-decoration-style: initial; text-decoration-color: initial;&quot; dir=&quot;auto&quot;&gt;&lt;li style=&quot;box-sizing: border-box; font-size: 9px;&quot;&gt;Se necesita conocer los datos personales de los clientes (nombre, apellidos, RFC, dirección y fecha de nacimiento).&lt;/li&gt;&lt;li style=&quot;box-sizing: border-box; margin-top: 0.25em; font-size: 9px;&quot;&gt;Cada producto tiene un nombre y un código, así como un precio unitario.&lt;/li&gt;&lt;li style=&quot;box-sizing: border-box; margin-top: 0.25em; font-size: 9px;&quot;&gt;Un cliente puede comprar varios productos a la empresa, y un mismo producto puede ser comprado por varios clientes.&lt;/li&gt;&lt;li style=&quot;box-sizing: border-box; margin-top: 0.25em; font-size: 9px;&quot;&gt;Los productos son suministrados por diferentes proveedores.&lt;/li&gt;&lt;li style=&quot;box-sizing: border-box; margin-top: 0.25em; font-size: 9px;&quot;&gt;Se debe tener en cuenta que un producto sólo puede ser suministrado por un proveedor, y que un proveedor puede suministrar diferentes productos.&lt;/li&gt;&lt;li style=&quot;box-sizing: border-box; margin-top: 0.25em; font-size: 9px;&quot;&gt;De cada proveedor se desea conocer el RFC, nombre y dirección.&lt;/li&gt;&lt;/ul&gt;&#xa;&#xa;" style="shape=note;size=20;whiteSpace=wrap;html=1;fontStyle=1;labelBackgroundColor=default;fontColor=#000000;fontSize=9;" vertex="1" parent="1">
          <mxGeometry x="-265" y="450" width="770" height="160" as="geometry" />
        </mxCell>
        <mxCell id="qtwtknoeKy0tqFDnTAvP-40" value="" style="edgeStyle=orthogonalEdgeStyle;rounded=0;orthogonalLoop=1;jettySize=auto;html=1;" edge="1" parent="1" source="qtwtknoeKy0tqFDnTAvP-38">
          <mxGeometry relative="1" as="geometry">
            <mxPoint x="-10" y="800" as="targetPoint" />
          </mxGeometry>
        </mxCell>
        <mxCell id="qtwtknoeKy0tqFDnTAvP-74" value="" style="edgeStyle=orthogonalEdgeStyle;rounded=0;orthogonalLoop=1;jettySize=auto;html=1;" edge="1" parent="1" source="qtwtknoeKy0tqFDnTAvP-38" target="qtwtknoeKy0tqFDnTAvP-72">
          <mxGeometry relative="1" as="geometry" />
        </mxCell>
        <mxCell id="qtwtknoeKy0tqFDnTAvP-38" value="Cliente" style="rounded=1;whiteSpace=wrap;html=1;fillColor=#dae8fc;strokeColor=#6c8ebf;" vertex="1" parent="1">
          <mxGeometry x="-200" y="770" width="120" height="60" as="geometry" />
        </mxCell>
        <mxCell id="qtwtknoeKy0tqFDnTAvP-44" value="" style="edgeStyle=orthogonalEdgeStyle;rounded=0;orthogonalLoop=1;jettySize=auto;html=1;" edge="1" parent="1" source="qtwtknoeKy0tqFDnTAvP-42" target="qtwtknoeKy0tqFDnTAvP-43">
          <mxGeometry relative="1" as="geometry" />
        </mxCell>
        <mxCell id="qtwtknoeKy0tqFDnTAvP-42" value="compra" style="shape=rhombus;perimeter=rhombusPerimeter;whiteSpace=wrap;html=1;align=center;" vertex="1" parent="1">
          <mxGeometry x="-10" y="770" width="120" height="60" as="geometry" />
        </mxCell>
        <mxCell id="qtwtknoeKy0tqFDnTAvP-46" value="" style="edgeStyle=orthogonalEdgeStyle;rounded=0;orthogonalLoop=1;jettySize=auto;html=1;" edge="1" parent="1" source="qtwtknoeKy0tqFDnTAvP-43" target="qtwtknoeKy0tqFDnTAvP-45">
          <mxGeometry relative="1" as="geometry" />
        </mxCell>
        <mxCell id="qtwtknoeKy0tqFDnTAvP-65" value="" style="edgeStyle=orthogonalEdgeStyle;rounded=0;orthogonalLoop=1;jettySize=auto;html=1;" edge="1" parent="1" source="qtwtknoeKy0tqFDnTAvP-43" target="qtwtknoeKy0tqFDnTAvP-63">
          <mxGeometry relative="1" as="geometry" />
        </mxCell>
        <mxCell id="qtwtknoeKy0tqFDnTAvP-66" value="" style="edgeStyle=orthogonalEdgeStyle;rounded=0;orthogonalLoop=1;jettySize=auto;html=1;" edge="1" parent="1" source="qtwtknoeKy0tqFDnTAvP-43" target="qtwtknoeKy0tqFDnTAvP-62">
          <mxGeometry relative="1" as="geometry" />
        </mxCell>
        <mxCell id="qtwtknoeKy0tqFDnTAvP-43" value="producto" style="rounded=1;whiteSpace=wrap;html=1;fillColor=#ffe6cc;strokeColor=#d79b00;" vertex="1" parent="1">
          <mxGeometry x="190" y="770" width="120" height="60" as="geometry" />
        </mxCell>
        <mxCell id="qtwtknoeKy0tqFDnTAvP-48" value="" style="edgeStyle=orthogonalEdgeStyle;rounded=0;orthogonalLoop=1;jettySize=auto;html=1;" edge="1" parent="1" source="qtwtknoeKy0tqFDnTAvP-45" target="qtwtknoeKy0tqFDnTAvP-47">
          <mxGeometry relative="1" as="geometry" />
        </mxCell>
        <mxCell id="qtwtknoeKy0tqFDnTAvP-45" value="suministra" style="shape=rhombus;perimeter=rhombusPerimeter;whiteSpace=wrap;html=1;align=center;" vertex="1" parent="1">
          <mxGeometry x="190" y="890" width="120" height="60" as="geometry" />
        </mxCell>
        <mxCell id="qtwtknoeKy0tqFDnTAvP-51" value="" style="edgeStyle=orthogonalEdgeStyle;rounded=0;orthogonalLoop=1;jettySize=auto;html=1;" edge="1" parent="1" source="qtwtknoeKy0tqFDnTAvP-47" target="qtwtknoeKy0tqFDnTAvP-50">
          <mxGeometry relative="1" as="geometry" />
        </mxCell>
        <mxCell id="qtwtknoeKy0tqFDnTAvP-47" value="proveedor" style="rounded=1;whiteSpace=wrap;html=1;fillColor=#e1d5e7;strokeColor=#9673a6;" vertex="1" parent="1">
          <mxGeometry x="190" y="1030" width="120" height="60" as="geometry" />
        </mxCell>
        <mxCell id="qtwtknoeKy0tqFDnTAvP-49" value="RFC" style="ellipse;whiteSpace=wrap;html=1;fillColor=#dae8fc;strokeColor=#6c8ebf;" vertex="1" parent="1">
          <mxGeometry x="-200" y="620" width="120" height="80" as="geometry" />
        </mxCell>
        <mxCell id="qtwtknoeKy0tqFDnTAvP-50" value="RFC" style="ellipse;whiteSpace=wrap;html=1;fillColor=#e1d5e7;strokeColor=#9673a6;" vertex="1" parent="1">
          <mxGeometry x="30" y="1020" width="120" height="80" as="geometry" />
        </mxCell>
        <mxCell id="qtwtknoeKy0tqFDnTAvP-52" value="1" style="text;strokeColor=none;fillColor=none;spacingLeft=4;spacingRight=4;overflow=hidden;rotatable=0;points=[[0,0.5],[1,0.5]];portConstraint=eastwest;fontSize=12;whiteSpace=wrap;html=1;" vertex="1" parent="1">
          <mxGeometry x="250" y="1000" width="40" height="30" as="geometry" />
        </mxCell>
        <mxCell id="qtwtknoeKy0tqFDnTAvP-53" value="N" style="text;strokeColor=none;fillColor=none;spacingLeft=4;spacingRight=4;overflow=hidden;rotatable=0;points=[[0,0.5],[1,0.5]];portConstraint=eastwest;fontSize=12;whiteSpace=wrap;html=1;" vertex="1" parent="1">
          <mxGeometry x="260" y="950" width="40" height="30" as="geometry" />
        </mxCell>
        <mxCell id="qtwtknoeKy0tqFDnTAvP-54" value="1:N" style="text;strokeColor=none;fillColor=none;spacingLeft=4;spacingRight=4;overflow=hidden;rotatable=0;points=[[0,0.5],[1,0.5]];portConstraint=eastwest;fontSize=12;whiteSpace=wrap;html=1;" vertex="1" parent="1">
          <mxGeometry x="140" y="905" width="40" height="30" as="geometry" />
        </mxCell>
        <mxCell id="qtwtknoeKy0tqFDnTAvP-55" value="1" style="text;strokeColor=none;fillColor=none;spacingLeft=4;spacingRight=4;overflow=hidden;rotatable=0;points=[[0,0.5],[1,0.5]];portConstraint=eastwest;fontSize=12;whiteSpace=wrap;html=1;" vertex="1" parent="1">
          <mxGeometry x="260" y="875" width="40" height="30" as="geometry" />
        </mxCell>
        <mxCell id="qtwtknoeKy0tqFDnTAvP-56" value="1" style="text;strokeColor=none;fillColor=none;spacingLeft=4;spacingRight=4;overflow=hidden;rotatable=0;points=[[0,0.5],[1,0.5]];portConstraint=eastwest;fontSize=12;whiteSpace=wrap;html=1;" vertex="1" parent="1">
          <mxGeometry x="250" y="830" width="40" height="30" as="geometry" />
        </mxCell>
        <mxCell id="qtwtknoeKy0tqFDnTAvP-57" value="1" style="text;strokeColor=none;fillColor=none;spacingLeft=4;spacingRight=4;overflow=hidden;rotatable=0;points=[[0,0.5],[1,0.5]];portConstraint=eastwest;fontSize=12;whiteSpace=wrap;html=1;" vertex="1" parent="1">
          <mxGeometry x="170" y="770" width="40" height="30" as="geometry" />
        </mxCell>
        <mxCell id="qtwtknoeKy0tqFDnTAvP-58" value="N" style="text;strokeColor=none;fillColor=none;spacingLeft=4;spacingRight=4;overflow=hidden;rotatable=0;points=[[0,0.5],[1,0.5]];portConstraint=eastwest;fontSize=12;whiteSpace=wrap;html=1;" vertex="1" parent="1">
          <mxGeometry x="100" y="770" width="40" height="30" as="geometry" />
        </mxCell>
        <mxCell id="qtwtknoeKy0tqFDnTAvP-59" value="N" style="text;strokeColor=none;fillColor=none;spacingLeft=4;spacingRight=4;overflow=hidden;rotatable=0;points=[[0,0.5],[1,0.5]];portConstraint=eastwest;fontSize=12;whiteSpace=wrap;html=1;" vertex="1" parent="1">
          <mxGeometry x="-20" y="770" width="40" height="30" as="geometry" />
        </mxCell>
        <mxCell id="qtwtknoeKy0tqFDnTAvP-60" value="1" style="text;strokeColor=none;fillColor=none;spacingLeft=4;spacingRight=4;overflow=hidden;rotatable=0;points=[[0,0.5],[1,0.5]];portConstraint=eastwest;fontSize=12;whiteSpace=wrap;html=1;" vertex="1" parent="1">
          <mxGeometry x="-80" y="770" width="40" height="30" as="geometry" />
        </mxCell>
        <mxCell id="qtwtknoeKy0tqFDnTAvP-61" value="" style="endArrow=classic;html=1;rounded=0;" edge="1" parent="1">
          <mxGeometry width="50" height="50" relative="1" as="geometry">
            <mxPoint x="-140" y="710" as="sourcePoint" />
            <mxPoint x="-140" y="760" as="targetPoint" />
          </mxGeometry>
        </mxCell>
        <mxCell id="qtwtknoeKy0tqFDnTAvP-62" value="RFC" style="ellipse;whiteSpace=wrap;html=1;fillColor=#e1d5e7;strokeColor=#9673a6;" vertex="1" parent="1">
          <mxGeometry x="200" y="640" width="120" height="80" as="geometry" />
        </mxCell>
        <mxCell id="qtwtknoeKy0tqFDnTAvP-63" value="codigo" style="ellipse;whiteSpace=wrap;html=1;fillColor=#ffe6cc;strokeColor=#d79b00;" vertex="1" parent="1">
          <mxGeometry x="380" y="760" width="120" height="80" as="geometry" />
        </mxCell>
        <mxCell id="qtwtknoeKy0tqFDnTAvP-71" style="edgeStyle=orthogonalEdgeStyle;rounded=0;orthogonalLoop=1;jettySize=auto;html=1;entryX=0;entryY=1;entryDx=0;entryDy=0;" edge="1" parent="1" source="qtwtknoeKy0tqFDnTAvP-67" target="qtwtknoeKy0tqFDnTAvP-42">
          <mxGeometry relative="1" as="geometry" />
        </mxCell>
        <mxCell id="qtwtknoeKy0tqFDnTAvP-67" value="RFC" style="ellipse;whiteSpace=wrap;html=1;fillColor=#dae8fc;strokeColor=#6c8ebf;" vertex="1" parent="1">
          <mxGeometry x="-70" y="880" width="80" height="30" as="geometry" />
        </mxCell>
        <mxCell id="qtwtknoeKy0tqFDnTAvP-68" value="codigo" style="ellipse;whiteSpace=wrap;html=1;fillColor=#ffe6cc;strokeColor=#d79b00;" vertex="1" parent="1">
          <mxGeometry x="52.5" y="873.75" width="75" height="37.5" as="geometry" />
        </mxCell>
        <mxCell id="qtwtknoeKy0tqFDnTAvP-69" value="" style="edgeStyle=orthogonalEdgeStyle;rounded=0;orthogonalLoop=1;jettySize=auto;html=1;" edge="1" parent="1" source="qtwtknoeKy0tqFDnTAvP-42" target="qtwtknoeKy0tqFDnTAvP-68">
          <mxGeometry relative="1" as="geometry">
            <Array as="points">
              <mxPoint x="80" y="830" />
              <mxPoint x="80" y="830" />
            </Array>
          </mxGeometry>
        </mxCell>
        <mxCell id="qtwtknoeKy0tqFDnTAvP-72" value="Fecha de nacimiento" style="ellipse;whiteSpace=wrap;html=1;fillColor=#dae8fc;strokeColor=#6c8ebf;" vertex="1" parent="1">
          <mxGeometry x="-180" y="872.5" width="80" height="40" as="geometry" />
        </mxCell>
        <mxCell id="qtwtknoeKy0tqFDnTAvP-76" value="" style="edgeStyle=orthogonalEdgeStyle;rounded=0;orthogonalLoop=1;jettySize=auto;html=1;" edge="1" parent="1" source="qtwtknoeKy0tqFDnTAvP-75" target="qtwtknoeKy0tqFDnTAvP-72">
          <mxGeometry relative="1" as="geometry" />
        </mxCell>
        <mxCell id="qtwtknoeKy0tqFDnTAvP-78" value="" style="edgeStyle=orthogonalEdgeStyle;rounded=0;orthogonalLoop=1;jettySize=auto;html=1;" edge="1" parent="1" source="qtwtknoeKy0tqFDnTAvP-75" target="qtwtknoeKy0tqFDnTAvP-77">
          <mxGeometry relative="1" as="geometry" />
        </mxCell>
        <mxCell id="qtwtknoeKy0tqFDnTAvP-75" value="direccion" style="ellipse;whiteSpace=wrap;html=1;fillColor=#dae8fc;strokeColor=#6c8ebf;" vertex="1" parent="1">
          <mxGeometry x="-180" y="940" width="80" height="40" as="geometry" />
        </mxCell>
        <mxCell id="qtwtknoeKy0tqFDnTAvP-81" value="" style="edgeStyle=orthogonalEdgeStyle;rounded=0;orthogonalLoop=1;jettySize=auto;html=1;" edge="1" parent="1" source="qtwtknoeKy0tqFDnTAvP-77" target="qtwtknoeKy0tqFDnTAvP-80">
          <mxGeometry relative="1" as="geometry" />
        </mxCell>
        <mxCell id="qtwtknoeKy0tqFDnTAvP-77" value="Email" style="ellipse;whiteSpace=wrap;html=1;fillColor=#dae8fc;strokeColor=#6c8ebf;" vertex="1" parent="1">
          <mxGeometry x="-180" y="1010" width="80" height="40" as="geometry" />
        </mxCell>
        <mxCell id="qtwtknoeKy0tqFDnTAvP-80" value="Telefono" style="ellipse;whiteSpace=wrap;html=1;fillColor=#dae8fc;strokeColor=#6c8ebf;" vertex="1" parent="1">
          <mxGeometry x="-180" y="1070" width="80" height="40" as="geometry" />
        </mxCell>
        <mxCell id="qtwtknoeKy0tqFDnTAvP-82" value="&lt;font style=&quot;font-size: 10px;&quot;&gt;&lt;br style=&quot;&quot;&gt;&lt;/font&gt;&lt;ul style=&quot;box-sizing: border-box; padding-left: 2em; margin-top: 0px; margin-bottom: 16px; font-family: -apple-system, BlinkMacSystemFont, &amp;quot;Segoe UI&amp;quot;, &amp;quot;Noto Sans&amp;quot;, Helvetica, Arial, sans-serif, &amp;quot;Apple Color Emoji&amp;quot;, &amp;quot;Segoe UI Emoji&amp;quot;; font-style: normal; font-variant-ligatures: normal; font-variant-caps: normal; font-weight: 400; letter-spacing: normal; orphans: 2; text-align: start; text-indent: 0px; text-transform: none; widows: 2; word-spacing: 0px; -webkit-text-stroke-width: 0px; text-decoration-thickness: initial; text-decoration-style: initial; text-decoration-color: initial; font-size: 10px;&quot; dir=&quot;auto&quot;&gt;&lt;li style=&quot;box-sizing: border-box;&quot;&gt;&lt;font style=&quot;font-size: 10px;&quot;&gt;La empresa dispone de una serie de coches para su venta. Se necesita conocer la matrícula, marca y modelo, el color y el precio de venta de cada coche.&lt;/font&gt;&lt;/li&gt;&lt;li style=&quot;box-sizing: border-box; margin-top: 0.25em;&quot;&gt;&lt;font style=&quot;font-size: 10px;&quot;&gt;Los datos que interesa conocer de cada cliente son el RFC, nombre, dirección, ciudad y número de teléfono: además, los clientes se diferencian por un código interno de la empresa que se incrementa automáticamente cuando un cliente se da de alta en ella.&lt;/font&gt;&lt;/li&gt;&lt;li style=&quot;box-sizing: border-box; margin-top: 0.25em;&quot;&gt;&lt;font style=&quot;font-size: 10px;&quot;&gt;Un cliente puede comprar tantos coches como desee a la empresa.&lt;/font&gt;&lt;/li&gt;&lt;li style=&quot;box-sizing: border-box; margin-top: 0.25em;&quot;&gt;&lt;font style=&quot;font-size: 10px;&quot;&gt;Un coche determinado solo puede ser comprado por un único cliente.&lt;/font&gt;&lt;/li&gt;&lt;li style=&quot;box-sizing: border-box; margin-top: 0.25em;&quot;&gt;&lt;font style=&quot;font-size: 10px;&quot;&gt;El concesionario también se encarga de llevar a cabo las revisiones que se realizan a cada coche.&lt;/font&gt;&lt;/li&gt;&lt;li style=&quot;box-sizing: border-box; margin-top: 0.25em;&quot;&gt;&lt;font style=&quot;font-size: 10px;&quot;&gt;Cada revisión tiene asociado un código que se incrementa automáticamente por cada revisión que se haga.&lt;/font&gt;&lt;/li&gt;&lt;li style=&quot;box-sizing: border-box; margin-top: 0.25em;&quot;&gt;&lt;font style=&quot;font-size: 10px;&quot;&gt;De cada revisión se desea saber si se ha hecho cambio de filtro, si se ha hecho cambio de aceite, si se ha hecho cambio de frenos u otros.&lt;/font&gt;&lt;/li&gt;&lt;li style=&quot;box-sizing: border-box; margin-top: 0.25em;&quot;&gt;&lt;font style=&quot;font-size: 10px;&quot;&gt;Los coches pueden pasar varias revisiones en el concesionario.&lt;/font&gt;&lt;/li&gt;&lt;/ul&gt;" style="shape=note;size=20;whiteSpace=wrap;html=1;fillColor=#FFFFFF;gradientColor=none;labelBackgroundColor=default;fontColor=#000000;fontSize=9;" vertex="1" parent="1">
          <mxGeometry x="-430" y="1240" width="1170" height="190" as="geometry" />
        </mxCell>
        <mxCell id="qtwtknoeKy0tqFDnTAvP-85" value="" style="edgeStyle=orthogonalEdgeStyle;rounded=0;orthogonalLoop=1;jettySize=auto;html=1;" edge="1" parent="1" source="qtwtknoeKy0tqFDnTAvP-83" target="qtwtknoeKy0tqFDnTAvP-84">
          <mxGeometry relative="1" as="geometry" />
        </mxCell>
        <mxCell id="qtwtknoeKy0tqFDnTAvP-102" value="" style="edgeStyle=orthogonalEdgeStyle;rounded=0;orthogonalLoop=1;jettySize=auto;html=1;" edge="1" parent="1" source="qtwtknoeKy0tqFDnTAvP-83" target="qtwtknoeKy0tqFDnTAvP-94">
          <mxGeometry relative="1" as="geometry" />
        </mxCell>
        <mxCell id="qtwtknoeKy0tqFDnTAvP-83" value="Auto 01" style="rounded=1;whiteSpace=wrap;html=1;fillColor=#dae8fc;strokeColor=#6c8ebf;" vertex="1" parent="1">
          <mxGeometry x="-160" y="1630" width="120" height="60" as="geometry" />
        </mxCell>
        <mxCell id="qtwtknoeKy0tqFDnTAvP-84" value="Matricula" style="ellipse;whiteSpace=wrap;html=1;align=center;fillColor=#dae8fc;strokeColor=#6c8ebf;" vertex="1" parent="1">
          <mxGeometry x="-175" y="1460" width="150" height="70" as="geometry" />
        </mxCell>
        <mxCell id="qtwtknoeKy0tqFDnTAvP-86" value="" style="rounded=1;whiteSpace=wrap;html=1;" vertex="1" parent="1">
          <mxGeometry x="380" y="1630" width="120" height="60" as="geometry" />
        </mxCell>
        <mxCell id="qtwtknoeKy0tqFDnTAvP-88" value="" style="edgeStyle=orthogonalEdgeStyle;rounded=0;orthogonalLoop=1;jettySize=auto;html=1;" edge="1" parent="1" source="qtwtknoeKy0tqFDnTAvP-87" target="qtwtknoeKy0tqFDnTAvP-86">
          <mxGeometry relative="1" as="geometry" />
        </mxCell>
        <mxCell id="qtwtknoeKy0tqFDnTAvP-89" value="" style="edgeStyle=orthogonalEdgeStyle;rounded=0;orthogonalLoop=1;jettySize=auto;html=1;" edge="1" parent="1" source="qtwtknoeKy0tqFDnTAvP-87" target="qtwtknoeKy0tqFDnTAvP-83">
          <mxGeometry relative="1" as="geometry" />
        </mxCell>
        <mxCell id="qtwtknoeKy0tqFDnTAvP-87" value="Compra" style="shape=rhombus;perimeter=rhombusPerimeter;whiteSpace=wrap;html=1;align=center;" vertex="1" parent="1">
          <mxGeometry x="140" y="1630" width="120" height="60" as="geometry" />
        </mxCell>
        <mxCell id="qtwtknoeKy0tqFDnTAvP-90" value="1" style="text;strokeColor=none;fillColor=none;spacingLeft=4;spacingRight=4;overflow=hidden;rotatable=0;points=[[0,0.5],[1,0.5]];portConstraint=eastwest;fontSize=12;whiteSpace=wrap;html=1;" vertex="1" parent="1">
          <mxGeometry x="350" y="1630" width="40" height="30" as="geometry" />
        </mxCell>
        <mxCell id="qtwtknoeKy0tqFDnTAvP-91" value="1" style="text;strokeColor=none;fillColor=none;spacingLeft=4;spacingRight=4;overflow=hidden;rotatable=0;points=[[0,0.5],[1,0.5]];portConstraint=eastwest;fontSize=12;whiteSpace=wrap;html=1;" vertex="1" parent="1">
          <mxGeometry x="-40" y="1630" width="40" height="30" as="geometry" />
        </mxCell>
        <mxCell id="qtwtknoeKy0tqFDnTAvP-92" value="N" style="text;strokeColor=none;fillColor=none;spacingLeft=4;spacingRight=4;overflow=hidden;rotatable=0;points=[[0,0.5],[1,0.5]];portConstraint=eastwest;fontSize=12;whiteSpace=wrap;html=1;" vertex="1" parent="1">
          <mxGeometry x="115" y="1630" width="40" height="30" as="geometry" />
        </mxCell>
        <mxCell id="qtwtknoeKy0tqFDnTAvP-93" value="M" style="text;strokeColor=none;fillColor=none;spacingLeft=4;spacingRight=4;overflow=hidden;rotatable=0;points=[[0,0.5],[1,0.5]];portConstraint=eastwest;fontSize=12;whiteSpace=wrap;html=1;" vertex="1" parent="1">
          <mxGeometry x="250" y="1630" width="40" height="30" as="geometry" />
        </mxCell>
        <mxCell id="qtwtknoeKy0tqFDnTAvP-97" value="" style="edgeStyle=orthogonalEdgeStyle;rounded=0;orthogonalLoop=1;jettySize=auto;html=1;" edge="1" parent="1" source="qtwtknoeKy0tqFDnTAvP-94" target="qtwtknoeKy0tqFDnTAvP-96">
          <mxGeometry relative="1" as="geometry" />
        </mxCell>
        <mxCell id="qtwtknoeKy0tqFDnTAvP-94" value="MARCA" style="ellipse;whiteSpace=wrap;html=1;" vertex="1" parent="1">
          <mxGeometry x="-155" y="1730" width="110" height="40" as="geometry" />
        </mxCell>
        <mxCell id="qtwtknoeKy0tqFDnTAvP-99" value="" style="edgeStyle=orthogonalEdgeStyle;rounded=0;orthogonalLoop=1;jettySize=auto;html=1;" edge="1" parent="1" source="qtwtknoeKy0tqFDnTAvP-96" target="qtwtknoeKy0tqFDnTAvP-98">
          <mxGeometry relative="1" as="geometry" />
        </mxCell>
        <mxCell id="qtwtknoeKy0tqFDnTAvP-96" value="MODELO" style="ellipse;whiteSpace=wrap;html=1;" vertex="1" parent="1">
          <mxGeometry x="-155" y="1850" width="110" height="40" as="geometry" />
        </mxCell>
        <mxCell id="qtwtknoeKy0tqFDnTAvP-101" value="" style="edgeStyle=orthogonalEdgeStyle;rounded=0;orthogonalLoop=1;jettySize=auto;html=1;" edge="1" parent="1" source="qtwtknoeKy0tqFDnTAvP-98">
          <mxGeometry relative="1" as="geometry">
            <mxPoint x="-100" y="2090" as="targetPoint" />
          </mxGeometry>
        </mxCell>
        <mxCell id="qtwtknoeKy0tqFDnTAvP-98" value="COLOR" style="ellipse;whiteSpace=wrap;html=1;" vertex="1" parent="1">
          <mxGeometry x="-155" y="1970" width="110" height="40" as="geometry" />
        </mxCell>
        <mxCell id="qtwtknoeKy0tqFDnTAvP-104" value="COMPRA" style="shape=rhombus;double=1;perimeter=rhombusPerimeter;whiteSpace=wrap;html=1;align=center;" vertex="1" parent="1">
          <mxGeometry x="140" y="1630" width="120" height="60" as="geometry" />
        </mxCell>
        <mxCell id="qtwtknoeKy0tqFDnTAvP-105" value="PRECIO" style="ellipse;whiteSpace=wrap;html=1;align=center;dashed=1;" vertex="1" parent="1">
          <mxGeometry x="-155" y="2090" width="100" height="40" as="geometry" />
        </mxCell>
        <mxCell id="qtwtknoeKy0tqFDnTAvP-106" value="VIVE" style="rhombus;whiteSpace=wrap;html=1;" vertex="1" parent="1">
          <mxGeometry x="-130" y="1550" width="60" height="50" as="geometry" />
        </mxCell>
      </root>
    </mxGraphModel>
  </diagram>
</mxfile>
